<svg width="156" height="88" viewBox="0 0 156 88" fill="none" xmlns="http://www.w3.org/2000/svg">
<path d="M73.9749 1.15177C123.626 8.3907 156 17.1482 156 36.8808C156 48.354 143.568 58.5598 124.27 65.0968C115.194 79.2102 131.597 87.9839 131.597 87.9839C131.597 87.9839 97.0272 89.1987 101.577 70.5297C92.9506 71.8728 83.6614 72.6084 73.9749 72.6084C28.6757 72.6111 0 56.6147 0 36.8821C0 17.1495 29.1515 -5.38258 73.9749 1.15177Z" fill="white"/>
<path d="M42.3206 44H46.1606V27.2H30.8006V44H34.6406V30.8H42.3206V44ZM49.6331 48.944H53.2331V42.296C53.8091 43.4 54.9611 44.264 56.7611 44.264C59.9051 44.264 62.1611 42.464 62.1611 37.736C62.1611 33.536 59.9051 31.784 57.0011 31.784C54.5531 31.784 53.4011 33.152 53.0171 34.424V32H49.6331V48.944ZM53.2331 37.52C53.3051 35.912 54.0491 34.952 55.9451 34.952C57.5051 34.952 58.5371 35.768 58.5371 37.856C58.5371 40.208 57.7211 41.096 55.8251 41.096C54.1691 41.096 53.2331 40.16 53.2331 38.288V37.52ZM64.3982 43.952H65.1662V44H67.9982L72.7502 36.704V44H76.3742V32.048H75.5822V32H72.7742L68.0222 39.224V32H64.3982V43.952ZM79.3753 44H86.0233C89.0713 44 90.5833 42.68 90.5833 40.448C90.5833 38.48 89.4553 37.712 87.9193 37.52C89.2153 37.208 89.9833 36.224 89.9833 34.856C89.9833 32.984 88.7833 32 86.0953 32H79.3753V44ZM82.9753 41.048V39.056H85.5193C86.5993 39.056 86.9833 39.392 86.9833 40.04C86.9833 40.736 86.5753 41.048 85.5673 41.048H82.9753ZM82.9753 36.752V34.976L85.0393 34.952C85.9273 34.952 86.3593 35.216 86.3593 35.792C86.3593 36.488 85.9033 36.752 85.1593 36.752H82.9753ZM103.102 42.848V39.368C102.43 40.352 100.99 41.12 98.9021 41.12C96.9101 41.12 95.8541 40.328 95.5901 38.936H104.182V37.928C104.182 33.872 102.022 31.712 98.3261 31.712C94.4621 31.736 92.0141 34.184 92.0141 37.952C92.0141 42.008 94.5821 44.288 98.7101 44.264C100.678 44.288 102.574 43.424 103.102 42.848ZM98.2061 34.88C99.6701 34.88 100.366 35.648 100.51 36.608H95.6621C95.9981 35.504 96.8861 34.88 98.2061 34.88ZM109.182 44H112.782V35.168H116.598V32H105.534V35.168H109.182V44ZM123.983 27.2H120.143V38.48H123.983V27.2ZM119.903 42.104C119.903 43.28 120.407 44.24 122.063 44.24C123.767 44.24 124.271 43.28 124.271 42.104C124.271 40.904 123.767 39.92 122.063 39.92C120.407 39.92 119.903 40.904 119.903 42.104Z" fill="#515DAD"/>
</svg>
