<svg width="88" height="29" viewBox="0 0 88 29" fill="none" xmlns="http://www.w3.org/2000/svg">
<g clip-path="url(#clip0)">
<path d="M30.7244 3.16831L32.1785 2.10498H27.3594V8.48498H32.1785V7.42165H28.73V5.79607H31.6601V4.73274H28.73V3.16831H30.7244Z" fill="white"/>
<path d="M23.7446 4.58675H22.0819V3.16831H24.7418L26.176 2.10498H20.6914V8.48498H23.5579C25.157 8.48498 26.0926 7.75505 26.0926 6.4826C26.0906 5.27525 25.2603 4.58675 23.7446 4.58675ZM23.4943 7.42165H22.0601V5.65008H23.4943C24.3663 5.65008 24.7617 5.94206 24.7617 6.526C24.7815 7.15138 24.3465 7.42165 23.4943 7.42165Z" fill="white"/>
<path d="M36.0635 2.10498H33.4453V8.48498H34.816V6.67199H36.0615C37.7241 6.67199 38.7631 5.79607 38.7631 4.37961C38.765 2.9809 37.7261 2.10498 36.0635 2.10498ZM36.0217 5.60865H34.816V3.16831H36.0217C36.8938 3.16831 37.3924 3.60627 37.3924 4.39933C37.3924 5.1924 36.9157 5.60865 36.0217 5.60865Z" fill="white"/>
<path d="M18.3434 7.11002C17.9898 7.29743 17.5746 7.40199 17.1594 7.40199C15.9139 7.40199 15.02 6.52607 15.02 5.29703C15.02 4.06798 15.9139 3.19206 17.1594 3.19206C17.6382 3.19206 18.0533 3.31635 18.4049 3.58859L19.3823 2.85866L19.3207 2.79553C18.7387 2.29444 17.9699 2.02417 17.0978 2.02417C16.1424 2.02417 15.2902 2.33784 14.6664 2.91982C14.0427 3.50376 13.7109 4.33825 13.7109 5.2556C13.7109 6.17294 14.0427 7.00743 14.6664 7.61111C15.2902 8.21478 16.1424 8.55015 17.0978 8.55015C18.095 8.55015 18.9472 8.19505 19.5293 7.56968C19.0724 7.23628 18.6354 6.9226 18.6354 6.9226L18.3434 7.11002Z" fill="white"/>
<path d="M9.43165 2.0437C9.68194 2.35737 9.88854 2.7105 10.0554 3.08533L5.25612 6.63044L3.26172 5.37969V3.85867L5.25612 5.10942L9.43165 2.0437Z" fill="white"/>
<path d="M41.8208 2.58641C42.0075 2.46213 42.2777 2.31614 42.6313 2.21158C42.9849 2.0873 43.4199 2.02417 43.9403 2.02417C44.2939 2.02417 44.6257 2.0656 44.9177 2.12873C45.2077 2.19186 45.458 2.29641 45.6646 2.4207C45.8732 2.54499 46.038 2.71267 46.1433 2.92179C46.2466 3.1309 46.3102 3.35975 46.3102 3.65172C46.3102 4.38165 45.9367 4.88274 45.1878 5.15301C46.1652 5.299 46.6419 5.80009 46.6419 6.65431C46.6419 6.92458 46.5803 7.17512 46.4751 7.42567C46.3718 7.67621 46.2049 7.86363 45.9765 8.05104C45.7679 8.21873 45.4779 8.36471 45.166 8.4673C44.8342 8.57186 44.4588 8.61329 44.0436 8.61329C43.7536 8.61329 43.4835 8.59159 43.2332 8.55016C42.9849 8.50873 42.7544 8.4456 42.5478 8.36274C42.3393 8.27988 42.1744 8.19505 42.0294 8.1122C41.8844 8.00764 41.7592 7.92478 41.6758 7.82022V6.42349C41.7791 6.59118 41.9042 6.73716 42.0492 6.88118C42.1942 7.02716 42.381 7.15145 42.5677 7.23628C42.7763 7.34084 42.9829 7.42369 43.253 7.48682C43.5013 7.54995 43.7715 7.56968 44.0635 7.56968C44.2502 7.56968 44.437 7.54798 44.6038 7.50655C44.7707 7.46512 44.9157 7.40199 45.0408 7.31914C45.166 7.23628 45.2693 7.13172 45.3309 7.00546C45.3924 6.88118 45.4342 6.73519 45.4342 6.5675C45.4342 6.27553 45.3309 6.06641 45.1024 5.94213C44.874 5.81784 44.5204 5.73301 44.0218 5.73301H43.0663V4.79397H44.0218C44.2304 4.79397 44.3952 4.77227 44.5403 4.73084C44.6853 4.68941 44.7905 4.62628 44.872 4.54342C44.9554 4.46056 45.017 4.37573 45.0587 4.27315C45.1004 4.16859 45.1203 4.06403 45.1203 3.93975C45.1203 3.79376 45.1004 3.66948 45.0369 3.56492C44.9753 3.46036 44.8919 3.3775 44.7866 3.31437C44.6833 3.25124 44.5581 3.19009 44.4131 3.16839C44.2681 3.12696 44.1012 3.10526 43.9344 3.10526C43.6861 3.10526 43.4556 3.12696 43.2491 3.18812C43.0405 3.25124 42.8339 3.3341 42.667 3.43866C42.4803 3.54322 42.3353 3.6675 42.1883 3.79376C42.0433 3.91805 41.94 4.06403 41.8347 4.21002V2.58444H41.8208V2.58641Z" fill="white"/>
<path d="M50.418 7.44335C50.855 7.44335 51.1649 7.38022 51.3735 7.23423C51.5821 7.08825 51.6854 6.8594 51.6854 6.54573C51.6854 6.23206 51.5821 6.02491 51.3536 5.89865C51.145 5.77437 50.8352 5.71124 50.418 5.71124H48.8606V7.44138H50.418V7.44335ZM50.3366 4.79586C50.6901 4.79586 50.9802 4.71301 51.1888 4.56702C51.3973 4.42103 51.5006 4.21192 51.5006 3.91995C51.5006 3.6694 51.4172 3.46029 51.2305 3.336C51.0437 3.21172 50.7517 3.12689 50.3584 3.12689H48.8626V4.79389H50.3366V4.79586ZM47.7383 8.48498V2.10498H50.5014C51.9357 2.10498 52.6408 2.6258 52.6408 3.68913C52.6408 4.04423 52.5574 4.35593 52.4124 4.60648C52.2674 4.85702 52.0171 5.04444 51.6854 5.16872C52.0807 5.23185 52.3707 5.39757 52.5574 5.64811C52.7441 5.89865 52.8276 6.23206 52.8276 6.64831C52.8276 6.98172 52.766 7.25199 52.6607 7.50253C52.5356 7.73137 52.3906 7.94049 52.1621 8.08648C51.9535 8.23246 51.6834 8.33702 51.3735 8.41988C51.0616 8.48301 50.7299 8.52444 50.3346 8.52444H47.7383V8.48498Z" fill="white"/>
<path d="M55.3416 7.48476C55.4668 7.48476 55.5701 7.46306 55.6734 7.4019C55.7767 7.33877 55.8601 7.25591 55.9237 7.10993L53.1406 2.10693H54.4497L56.4858 5.79802L58.1485 2.10693H59.3324L57.0063 7.15136C56.8811 7.42163 56.758 7.65244 56.6328 7.83986C56.5077 8.02727 56.3825 8.15353 56.2375 8.27782C56.1124 8.38238 55.9674 8.46523 55.8223 8.50666C55.6773 8.54809 55.5323 8.56979 55.3655 8.56979C55.2204 8.56979 55.0754 8.54809 54.9503 8.52836C54.8251 8.50666 54.7218 8.46523 54.6185 8.4238V7.23619C54.702 7.31904 54.8053 7.38217 54.9304 7.4236C55.0913 7.46306 55.2165 7.48476 55.3416 7.48476Z" fill="white"/>
<path d="M61.263 8.48498H60.1406V2.10498H61.263V4.79586H62.2185L64.2744 2.10498H65.6451L63.2157 5.14899L66.0404 8.48498H64.5863L62.28 5.73294H61.263V8.48498Z" fill="white"/>
<path d="M17.2642 22.5785V26.7273H19.6539C20.091 26.7273 20.5061 26.6858 20.8597 26.6227C21.2332 26.5596 21.545 26.4353 21.7953 26.2676C22.0456 26.0999 22.2522 25.8711 22.3774 25.6008C22.5224 25.3088 22.5859 24.9754 22.5859 24.5375C22.5859 23.7878 22.3376 23.265 21.839 22.9947C21.3404 22.7245 20.6134 22.5982 19.6361 22.5982H17.2642V22.5785ZM15.0195 16.1985H23.9308V18.262H17.2642V20.513H19.7155C21.4398 20.513 22.7488 20.8464 23.6209 21.4935C24.4929 22.1603 24.93 23.1822 24.93 24.5789C24.93 25.2674 24.8048 25.8928 24.5565 26.4136C24.3062 26.9344 23.9546 27.3724 23.4977 27.7275C23.0408 28.0826 22.4807 28.3528 21.8351 28.5205C21.1914 28.7079 20.4644 28.7908 19.6738 28.7908H15.0195V16.1985Z" fill="white"/>
<path d="M29.147 25.6008L36.0023 16.1985H38.4317V28.7908H36.189V19.2425L29.3119 28.7908H26.9023V16.1985H29.147V25.6008Z" fill="white"/>
<path d="M40.9665 17.1377C41.3201 16.8674 41.8604 16.6169 42.5656 16.3881C43.2728 16.1375 44.123 16.033 45.1202 16.033C45.8274 16.033 46.471 16.0961 47.0312 16.2204C47.6132 16.3447 48.09 16.534 48.5071 16.8043C48.9223 17.0549 49.2342 17.3883 49.4626 17.7848C49.691 18.1813 49.7943 18.6607 49.7943 19.2032C49.7943 20.6631 49.0474 21.6416 47.5715 22.1644C49.4825 22.4564 50.438 23.4368 50.438 25.1255C50.438 25.6681 50.3347 26.1672 50.1062 26.6466C49.8976 27.1259 49.5659 27.5225 49.1289 27.8776C48.6919 28.211 48.1734 28.503 47.5298 28.6904C46.8862 28.8995 46.1591 29.004 45.3069 29.004C44.7249 29.004 44.2064 28.9626 43.7078 28.8581C43.2092 28.7752 42.7722 28.6489 42.3571 28.503C41.9617 28.357 41.6101 28.1893 41.3181 28.0019C41.0261 27.8145 40.7997 27.627 40.6328 27.4396V24.6659C40.8195 24.9993 41.0698 25.2913 41.3599 25.5615C41.6499 25.8318 42.0035 26.0823 42.3988 26.2915C42.7941 26.5006 43.2291 26.6466 43.7277 26.7708C44.2263 26.8754 44.7666 26.9385 45.3268 26.9385C45.7003 26.9385 46.0737 26.8971 46.4074 26.8142C46.7392 26.7314 47.0312 26.6051 47.2795 26.4394C47.5298 26.2717 47.7165 26.0843 47.8615 25.8357C48.0065 25.6069 48.0701 25.3149 48.0701 24.9815C48.0701 24.4193 47.8417 24.0011 47.4046 23.7308C46.9676 23.4605 46.2624 23.3342 45.2851 23.3342H43.394V21.4779H45.2851C45.7003 21.4779 46.032 21.4364 46.3022 21.3536C46.5723 21.2707 46.8008 21.1445 46.9676 20.9787C47.1345 20.8328 47.2576 20.6453 47.3411 20.4362C47.4245 20.2271 47.4662 20.02 47.4662 19.7694C47.4662 19.4774 47.4046 19.2269 47.2795 19.0198C47.1543 18.8106 46.9895 18.6449 46.7809 18.4989C46.5723 18.3747 46.324 18.2701 46.034 18.207C45.744 18.1438 45.4321 18.1024 45.0984 18.0827C44.6196 18.061 44.1627 18.1241 43.7476 18.2504C43.3324 18.3747 42.9371 18.5423 42.5835 18.7515C42.2299 18.9606 41.918 19.1894 41.628 19.4597C41.338 19.73 41.1096 20.0022 40.9427 20.2725V17.1377H40.9665Z" fill="white"/>
<path d="M61.6566 23.3498H54.7814V28.7908H52.5586V16.1985H54.7814V21.2646H61.6566V16.1985H63.9013V28.7908H61.6566V23.3498Z" fill="white"/>
<path d="M74.6834 23.3498H68.9068V26.7273H75.5356V28.7908H66.6641V16.1985H75.3469V18.264H68.9068V21.2646H74.6834V23.3498Z" fill="white"/>
<path d="M88.0018 27.4159C87.8349 27.6033 87.6283 27.7907 87.3363 27.9782C87.0661 28.1656 86.7126 28.3333 86.3391 28.4792C85.9656 28.6252 85.5286 28.7495 85.0519 28.8541C84.5731 28.9586 84.0745 29.0001 83.5362 29.0001C82.5191 29.0001 81.5835 28.8541 80.7313 28.5424C79.901 28.2504 79.1739 27.8124 78.5919 27.2502C77.99 26.6879 77.5331 26.0192 77.2213 25.2064C76.8895 24.3936 76.7227 23.496 76.7227 22.476C76.7227 21.537 76.8895 20.663 77.2014 19.87C77.5331 19.0769 77.99 18.3904 78.572 17.8262C79.1739 17.2422 79.8811 16.8043 80.7333 16.4926C81.5855 16.1809 82.5191 16.0132 83.5581 16.0132C84.5553 16.0132 85.4074 16.1375 86.1126 16.388C86.8198 16.6386 87.3581 16.8891 87.7336 17.1594V20.2862C87.5469 20.016 87.2966 19.7437 87.0264 19.4735C86.7563 19.2032 86.4245 18.9724 86.0709 18.7652C85.7173 18.5561 85.324 18.3904 84.9069 18.2641C84.4917 18.1399 84.0348 18.0767 83.5779 18.0767C82.8926 18.0767 82.2907 18.1813 81.7285 18.4101C81.1882 18.6192 80.7115 18.9309 80.336 19.3058C79.9626 19.6806 79.6507 20.16 79.464 20.7025C79.2554 21.245 79.1521 21.8487 79.1521 22.5155C79.1521 23.1192 79.2355 23.7031 79.4223 24.2259C79.609 24.7684 79.8791 25.2261 80.2526 25.6226C80.626 26.0192 81.0829 26.3309 81.6232 26.5617C82.1636 26.7925 82.8072 26.9168 83.5342 26.9365C84.0745 26.9365 84.593 26.8734 85.0499 26.7491C85.5068 26.6248 85.9219 26.4788 86.2954 26.2697C86.6688 26.0606 87.0026 25.8318 87.2926 25.5398C87.5826 25.2695 87.8111 24.9558 87.9998 24.6441V27.4159H88.0018Z" fill="white"/>
<path d="M10.5958 5.31667C10.5958 8.25218 8.22393 10.6333 5.29788 10.6333C2.37183 10.6333 0 8.25218 0 5.31667C0 2.37918 2.37183 0 5.29788 0C6.57914 0 7.75512 0.457687 8.67088 1.21721L7.67567 1.96687C7.00424 1.48551 6.18384 1.2034 5.29788 1.2034C3.0353 1.2034 1.19982 3.04401 1.19982 5.31667C1.19982 7.58735 3.0353 9.42993 5.29788 9.42993C7.56045 9.42993 9.39594 7.58735 9.39594 5.31667C9.39594 5.26932 9.39594 5.22197 9.39395 5.17463L10.5064 4.33619C10.564 4.65381 10.5958 4.98129 10.5958 5.31667Z" fill="white"/>
</g>
<defs>
<clipPath id="clip0">
<rect width="88" height="29" fill="white"/>
</clipPath>
</defs>
</svg>
