<svg width="50" height="50" viewBox="0 0 50 50" fill="none" xmlns="http://www.w3.org/2000/svg">
<circle cx="25" cy="25" r="25" fill="url(#paint0_linear)"/>
<ellipse cx="25.0011" cy="24.9998" rx="21.5909" ry="21.5909" fill="#FFE7FD"/>
<mask id="mask0" style="mask-type:alpha" maskUnits="userSpaceOnUse" x="12" y="12" width="24" height="23">
<path d="M19.4917 18.2338C19.5338 16.6948 21.2262 15.7786 22.538 16.5846L34.2431 23.7771C35.5548 24.5831 35.5021 26.5069 34.1482 27.2399L22.0668 33.7806C20.7129 34.5136 19.0732 33.506 19.1153 31.967L19.4917 18.2338Z" fill="#C4C4C4"/>
<path d="M19.4917 18.2338C19.5338 16.6948 21.2262 15.7786 22.538 16.5846L34.2431 23.7771C35.5548 24.5831 35.5021 26.5069 34.1482 27.2399L22.0668 33.7806C20.7129 34.5136 19.0732 33.506 19.1153 31.967L19.4917 18.2338Z" fill="url(#paint1_linear)"/>
</mask>
<g mask="url(#mask0)">
<ellipse cx="25.9002" cy="26.5922" rx="12.0525" ry="12.0523" fill="url(#paint2_linear)"/>
</g>
<defs>
<linearGradient id="paint0_linear" x1="25" y1="0" x2="25" y2="50" gradientUnits="userSpaceOnUse">
<stop stop-color="#5AB0FF"/>
<stop offset="0.359375" stop-color="#FF3C8A"/>
<stop offset="0.619792" stop-color="#8253AA"/>
<stop offset="1" stop-color="#515DAD"/>
</linearGradient>
<linearGradient id="paint1_linear" x1="19.5866" y1="14.771" x2="30.9478" y2="35.7566" gradientUnits="userSpaceOnUse">
<stop stop-color="#BF47DB"/>
<stop offset="0.35326" stop-color="#9CB7FF"/>
<stop offset="0.614583" stop-color="#9075DF"/>
<stop offset="0.848958" stop-color="#EC6BA3"/>
</linearGradient>
<linearGradient id="paint2_linear" x1="25.9002" y1="14.5399" x2="25.9002" y2="38.6445" gradientUnits="userSpaceOnUse">
<stop stop-color="#5AB0FF"/>
<stop offset="0.359375" stop-color="#FF3C8A"/>
<stop offset="0.619792" stop-color="#8253AA"/>
<stop offset="1" stop-color="#515DAD"/>
</linearGradient>
</defs>
</svg>
