<svg width="77" height="78" viewBox="0 0 77 78" fill="none" xmlns="http://www.w3.org/2000/svg">
<ellipse cx="38.5" cy="38.5007" rx="38.5" ry="38.5007" fill="url(#paint0_linear)"/>
<ellipse cx="38.5078" cy="38.5001" rx="33.25" ry="33.2506" fill="#FFE7FD"/>
<mask id="mask0" style="mask-type:alpha" maskUnits="userSpaceOnUse" x="29" y="24" width="27" height="30">
<path d="M30.0601 26.2106C30.1023 24.6716 31.7947 23.7554 33.1064 24.5614L54.3199 37.5967C55.6316 38.4028 55.5789 40.3266 54.225 41.0596L32.3295 52.9136C30.9756 53.6466 29.3359 52.639 29.3781 51.1L30.0601 26.2106Z" fill="#C4C4C4"/>
<path d="M30.0601 26.2106C30.1023 24.6716 31.7947 23.7554 33.1064 24.5614L54.3199 37.5967C55.6316 38.4028 55.5789 40.3266 54.225 41.0596L32.3295 52.9136C30.9756 53.6466 29.3359 52.639 29.3781 51.1L30.0601 26.2106Z" fill="url(#paint1_linear)"/>
</mask>
<g mask="url(#mask0)">
<circle cx="39.8734" cy="40.9525" r="18.5609" fill="url(#paint2_linear)"/>
</g>
<defs>
<linearGradient id="paint0_linear" x1="38.5" y1="0" x2="38.5" y2="77.0013" gradientUnits="userSpaceOnUse">
<stop stop-color="#5AB0FF"/>
<stop offset="0.359375" stop-color="#FF3C8A"/>
<stop offset="0.619792" stop-color="#8253AA"/>
<stop offset="1" stop-color="#515DAD"/>
</linearGradient>
<linearGradient id="paint1_linear" x1="30.155" y1="22.7478" x2="47.6518" y2="55.0659" gradientUnits="userSpaceOnUse">
<stop stop-color="#BF47DB"/>
<stop offset="0.35326" stop-color="#9CB7FF"/>
<stop offset="0.614583" stop-color="#9075DF"/>
<stop offset="0.848958" stop-color="#EC6BA3"/>
</linearGradient>
<linearGradient id="paint2_linear" x1="39.8734" y1="22.3916" x2="39.8734" y2="59.5133" gradientUnits="userSpaceOnUse">
<stop stop-color="#5AB0FF"/>
<stop offset="0.359375" stop-color="#FF3C8A"/>
<stop offset="0.619792" stop-color="#8253AA"/>
<stop offset="1" stop-color="#515DAD"/>
</linearGradient>
</defs>
</svg>
