<svg width="82" height="82" viewBox="0 0 82 82" fill="none" xmlns="http://www.w3.org/2000/svg">
<ellipse cx="40.7266" cy="40.7273" rx="40.7266" ry="40.7273" fill="url(#paint0_linear)"/>
<ellipse cx="40.7316" cy="40.7268" rx="35.173" ry="35.1736" fill="#FFE7FD"/>
<path d="M47.6182 41.9208C46.6563 41.1814 45.0629 40.8733 43.8944 40.8175C43.2806 40.7882 43.2068 40.9114 42.9029 40.4713C42.6226 40.0605 42.6137 39.0804 42.5104 38.5875C42.2478 37.3345 41.9882 36.0845 41.7255 34.8316C44.4963 33.1297 46.5737 30.3421 47.4058 27.2113C48.2379 24.0804 47.8159 20.6385 46.252 17.7952C45.7533 16.8885 44.9566 15.9466 43.9209 16.0024C43.1449 16.0464 42.5252 16.645 42.0501 17.2582C40.5511 19.2007 39.7662 21.6244 39.5272 24.0628C39.2912 26.5012 39.5744 28.9601 40.0495 31.3633C40.0938 31.5921 40.141 31.8357 40.0643 32.0558C39.9816 32.2964 39.7692 32.4636 39.5685 32.6191C36.6502 34.8609 33.5077 37.1203 31.9644 40.4537C31.0467 42.4314 30.7723 44.6966 31.1913 46.8328C31.6221 49.0335 32.8378 51.1403 34.744 52.3404C35.9922 53.1268 37.4617 53.4906 38.9194 53.7224C40.7665 54.0159 42.6786 54.1098 44.4934 53.6608C44.7029 54.7582 44.8799 55.8644 45.0156 56.9736C45.1248 57.848 45.234 58.74 45.2724 59.6262C45.2842 59.9108 45.2635 60.1866 45.2635 60.4683C45.2074 61.0464 44.9802 61.6186 44.6645 62.1056C44.5258 62.3228 44.3635 62.5282 44.1865 62.716C43.6465 63.2823 42.9678 63.7048 42.2508 64.0159C41.7403 64.2389 41.1915 64.3738 40.6338 64.4002C40.3534 64.4149 40.0731 64.4002 39.7957 64.3533C39.7721 64.3504 39.7485 64.3445 39.7249 64.3416C40.8315 63.7488 41.5928 62.5986 41.5928 61.2606C41.5928 59.3181 40.0111 57.7453 38.0577 57.7453C36.1043 57.7453 34.5227 59.3181 34.5227 61.2606C34.5227 61.8504 34.6821 62.3961 34.9388 62.8832L34.9181 62.8774C34.9683 62.9742 35.0273 63.0564 35.0834 63.1473C35.104 63.1825 35.1247 63.2177 35.1453 63.25C36.9984 66.1608 41.0616 65.9994 41.0616 65.9994C41.5573 66.0229 42.0826 65.9173 42.5577 65.797C43.6199 65.527 44.6173 64.9959 45.3845 64.2154C45.7504 63.8427 46.0632 63.4173 46.3169 62.9595C46.5264 62.5839 46.7094 62.1937 46.8068 61.7741C46.9425 61.1931 46.8982 60.5974 46.8422 60.0106C46.7123 58.6461 46.4556 57.2964 46.1871 55.9495C46.1222 55.6297 46.0602 55.3128 45.9953 54.993C45.8802 54.4237 45.7651 53.8545 45.653 53.2852C45.6471 53.2559 45.6412 53.2265 45.6353 53.2001C45.6353 53.2001 49.0375 52.2142 49.7457 49.2535C49.7428 49.2506 51.0913 44.5968 47.6182 41.9208ZM41.5219 20.8175C42.9088 18.9572 45.9068 19.7817 46.1222 22.088C46.1222 22.088 46.5441 25.395 43.6494 28.6696C43.1803 29.3063 42.177 30.2805 41.0115 31.3251L40.6633 29.6819C40.6397 29.5616 40.622 29.2535 40.6013 29.1332C40.2944 27.1614 40.2413 24.3357 40.4272 23.2412C40.6751 21.7917 41.5219 20.8175 41.5219 20.8175ZM35.9066 51.0933C34.4578 49.8727 33.4044 48.115 33.3159 46.2283C33.2126 44.0628 34.3516 42.0235 35.7178 40.3333C37.1046 38.6168 38.763 37.1144 40.6161 35.9026C40.9347 37.27 41.2505 38.6373 41.5692 40.0047C41.637 40.2923 41.7019 40.6062 41.578 40.8733C41.4423 41.1667 41.1236 41.3193 40.8403 41.4748C38.7512 42.6074 37.4705 44.8785 37.4292 47.223C37.4145 48.1092 37.5473 49.0247 38.0223 49.7729C38.4974 50.5211 39.3649 51.0669 40.2502 50.973C39.8695 51.0141 39.2617 49.3797 39.1761 49.101C38.94 48.3263 38.8928 47.49 39.0403 46.6919C39.3561 45.0018 40.6456 43.8398 42.3836 43.6784C43.0091 46.4806 43.735 49.8081 44.3222 52.7248C44.3252 52.7394 44.3281 52.7541 44.3311 52.7688C41.4777 53.6696 38.1846 53.0153 35.9066 51.0933ZM45.4052 52.2406L45.1602 50.9642C45.1543 50.929 45.1543 50.8938 45.1484 50.8586L43.617 43.6373C44.5907 43.6902 47.3143 44.1626 48.0225 47.7893C48.0225 47.7893 48.6303 50.5182 45.4052 52.2406Z" fill="url(#paint1_linear)"/>
<defs>
<linearGradient id="paint0_linear" x1="40.7266" y1="0" x2="40.7266" y2="81.4546" gradientUnits="userSpaceOnUse">
<stop stop-color="#5AB0FF"/>
<stop offset="0.359375" stop-color="#FF3C8A"/>
<stop offset="0.619792" stop-color="#8253AA"/>
<stop offset="1" stop-color="#515DAD"/>
</linearGradient>
<linearGradient id="paint1_linear" x1="40.5005" y1="16" x2="40.5005" y2="66.0027" gradientUnits="userSpaceOnUse">
<stop stop-color="#60ADFC"/>
<stop offset="0.432292" stop-color="#FC3D8B"/>
<stop offset="0.8125" stop-color="#76398F"/>
<stop offset="1" stop-color="#5E388F"/>
</linearGradient>
</defs>
</svg>
