<svg width="82" height="82" viewBox="0 0 82 82" fill="none" xmlns="http://www.w3.org/2000/svg">
<ellipse cx="40.7266" cy="40.7273" rx="40.7266" ry="40.7273" fill="url(#paint0_linear)"/>
<ellipse cx="40.7316" cy="40.7268" rx="35.173" ry="35.1736" fill="#FFE7FD"/>
<path d="M46.6182 40.9208C45.6563 40.1814 44.0629 39.8733 42.8944 39.8175C42.2806 39.7882 42.2068 39.9114 41.9029 39.4713C41.6226 39.0605 41.6137 38.0804 41.5104 37.5875C41.2478 36.3345 40.9882 35.0845 40.7255 33.8316C43.4963 32.1297 45.5737 29.3421 46.4058 26.2113C47.2379 23.0804 46.8159 19.6385 45.252 16.7952C44.7533 15.8885 43.9566 14.9466 42.9209 15.0024C42.1449 15.0464 41.5252 15.645 41.0501 16.2582C39.5511 18.2007 38.7662 20.6244 38.5272 23.0628C38.2912 25.5012 38.5744 27.9601 39.0495 30.3633C39.0938 30.5921 39.141 30.8357 39.0643 31.0558C38.9816 31.2964 38.7692 31.4636 38.5685 31.6191C35.6502 33.8609 32.5077 36.1203 30.9644 39.4537C30.0467 41.4314 29.7723 43.6966 30.1913 45.8328C30.6221 48.0335 31.8378 50.1403 33.744 51.3404C34.9922 52.1268 36.4617 52.4906 37.9194 52.7224C39.7665 53.0159 41.6786 53.1098 43.4934 52.6608C43.7029 53.7582 43.8799 54.8644 44.0156 55.9736C44.1248 56.848 44.234 57.74 44.2724 58.6262C44.2842 58.9108 44.2635 59.1866 44.2635 59.4683C44.2074 60.0464 43.9802 60.6186 43.6645 61.1056C43.5258 61.3228 43.3635 61.5282 43.1865 61.716C42.6465 62.2823 41.9678 62.7048 41.2508 63.0159C40.7403 63.2389 40.1915 63.3738 39.6338 63.4002C39.3534 63.4149 39.0731 63.4002 38.7957 63.3533C38.7721 63.3504 38.7485 63.3445 38.7249 63.3416C39.8315 62.7488 40.5928 61.5986 40.5928 60.2606C40.5928 58.3181 39.0111 56.7453 37.0577 56.7453C35.1043 56.7453 33.5227 58.3181 33.5227 60.2606C33.5227 60.8504 33.6821 61.3961 33.9388 61.8832L33.9181 61.8774C33.9683 61.9742 34.0273 62.0564 34.0834 62.1473C34.104 62.1825 34.1247 62.2177 34.1453 62.25C35.9984 65.1608 40.0616 64.9994 40.0616 64.9994C40.5573 65.0229 41.0826 64.9173 41.5577 64.797C42.6199 64.527 43.6173 63.9959 44.3845 63.2154C44.7504 62.8427 45.0632 62.4173 45.3169 61.9595C45.5264 61.5839 45.7094 61.1937 45.8068 60.7741C45.9425 60.1931 45.8982 59.5974 45.8422 59.0106C45.7123 57.6461 45.4556 56.2964 45.1871 54.9495C45.1222 54.6297 45.0602 54.3128 44.9953 53.993C44.8802 53.4237 44.7651 52.8545 44.653 52.2852C44.6471 52.2559 44.6412 52.2265 44.6353 52.2001C44.6353 52.2001 48.0375 51.2142 48.7457 48.2535C48.7428 48.2506 50.0913 43.5968 46.6182 40.9208ZM40.5219 19.8175C41.9088 17.9572 44.9068 18.7817 45.1222 21.088C45.1222 21.088 45.5441 24.395 42.6494 27.6696C42.1803 28.3063 41.177 29.2805 40.0115 30.3251L39.6633 28.6819C39.6397 28.5616 39.622 28.2535 39.6013 28.1332C39.2944 26.1614 39.2413 23.3357 39.4272 22.2412C39.6751 20.7917 40.5219 19.8175 40.5219 19.8175ZM34.9066 50.0933C33.4578 48.8727 32.4044 47.115 32.3159 45.2283C32.2126 43.0628 33.3516 41.0235 34.7178 39.3333C36.1046 37.6168 37.763 36.1144 39.6161 34.9026C39.9347 36.27 40.2505 37.6373 40.5692 39.0047C40.637 39.2923 40.7019 39.6062 40.578 39.8733C40.4423 40.1667 40.1236 40.3193 39.8403 40.4748C37.7512 41.6074 36.4705 43.8785 36.4292 46.223C36.4145 47.1092 36.5473 48.0247 37.0223 48.7729C37.4974 49.5211 38.3649 50.0669 39.2502 49.973C38.8695 50.0141 38.2617 48.3797 38.1761 48.101C37.94 47.3263 37.8928 46.49 38.0403 45.6919C38.3561 44.0018 39.6456 42.8398 41.3836 42.6784C42.0091 45.4806 42.735 48.8081 43.3222 51.7248C43.3252 51.7394 43.3281 51.7541 43.3311 51.7688C40.4777 52.6696 37.1846 52.0153 34.9066 50.0933ZM44.4052 51.2406L44.1602 49.9642C44.1543 49.929 44.1543 49.8938 44.1484 49.8586L42.617 42.6373C43.5907 42.6902 46.3143 43.1626 47.0225 46.7893C47.0225 46.7893 47.6303 49.5182 44.4052 51.2406Z" fill="url(#paint1_linear)"/>
<rect x="58.3438" y="24" width="1.99178" height="51.959" transform="rotate(42.861 58.3438 24)" fill="url(#paint2_linear)"/>
<defs>
<linearGradient id="paint0_linear" x1="40.7266" y1="0" x2="40.7266" y2="81.4546" gradientUnits="userSpaceOnUse">
<stop stop-color="#5AB0FF"/>
<stop offset="0.359375" stop-color="#FF3C8A"/>
<stop offset="0.619792" stop-color="#8253AA"/>
<stop offset="1" stop-color="#515DAD"/>
</linearGradient>
<linearGradient id="paint1_linear" x1="39.5005" y1="15" x2="39.5005" y2="65.0027" gradientUnits="userSpaceOnUse">
<stop stop-color="#60ADFC"/>
<stop offset="0.432292" stop-color="#F17EAD"/>
<stop offset="0.8125" stop-color="#AF5FD0"/>
<stop offset="1" stop-color="#7C50B5"/>
</linearGradient>
<linearGradient id="paint2_linear" x1="59.3396" y1="24" x2="59.3396" y2="75.959" gradientUnits="userSpaceOnUse">
<stop stop-color="#A87AC9"/>
<stop offset="0.577963" stop-color="#E277B6"/>
<stop offset="1" stop-color="#615AAD"/>
</linearGradient>
</defs>
</svg>
