<svg width="394" height="140" viewBox="0 0 394 140" fill="none" xmlns="http://www.w3.org/2000/svg">
<path d="M158.744 16.5496L166.257 10.9971H141.356V44.3125H166.257V38.7599H148.44V30.2677H163.573V24.7152H148.44V16.5496H158.744Z" fill="white"/>
<path d="M121.392 38.7599H113.986V29.5056H121.392C125.9 29.5056 127.939 31.0299 127.939 34.0783C128.047 37.3445 125.793 38.7599 121.392 38.7599ZM122.68 23.9531H114.093V16.5496H127.832L135.238 10.9971H106.902V44.3125H121.714C129.979 44.3125 134.808 40.5019 134.808 33.8606C134.808 27.5459 130.515 23.9531 122.68 23.9531Z" fill="white"/>
<path d="M186.113 29.2879H179.888V16.5496H186.113C190.621 16.5496 193.197 18.836 193.197 22.9732C193.197 27.1104 190.728 29.2879 186.113 29.2879ZM186.328 10.9971H172.804V44.3125H179.888V34.8404H186.328C194.914 34.8404 200.281 30.2677 200.281 22.8643C200.281 15.5698 194.914 10.9971 186.328 10.9971Z" fill="white"/>
<path d="M94.7738 37.1268C92.9492 38.1067 90.8026 38.651 88.6559 38.651C82.216 38.651 77.6008 34.0783 77.6008 27.6548C77.6008 21.2312 82.216 16.6585 88.6559 16.6585C91.1246 16.6585 93.2712 17.3118 95.0958 18.7271L100.14 14.9166L99.8184 14.5899C96.8131 11.977 92.8419 10.5616 88.334 10.5616C83.3967 10.5616 78.9961 12.1947 75.7761 15.2432C72.5562 18.2916 70.8389 22.6466 70.8389 27.437C70.8389 32.2275 72.5562 36.5824 75.7761 39.7398C78.9961 42.8971 83.3967 44.6391 88.334 44.6391C93.4859 44.6391 97.8865 42.7882 100.892 39.522C98.5305 37.78 96.2765 36.1469 96.2765 36.1469L94.7738 37.1268Z" fill="white"/>
<path d="M48.7285 10.6702C50.0165 12.3033 51.0898 14.1541 51.9485 16.1138L27.1549 34.6224L16.8511 28.09V20.1422L27.1549 26.6746L48.7285 10.6702Z" fill="white"/>
<path d="M216.058 13.5012C217.024 12.8479 218.42 12.0858 220.244 11.5415C222.069 10.8882 224.323 10.5616 227.006 10.5616C228.831 10.5616 230.548 10.7793 232.051 11.106C233.554 11.4326 234.842 11.977 235.915 12.6302C236.988 13.2834 237.847 14.1544 238.383 15.2432C238.92 16.3319 239.242 17.5295 239.242 19.0538C239.242 22.8643 237.31 25.4773 233.446 26.8927C238.491 27.6548 240.959 30.2678 240.959 34.7316C240.959 36.1469 240.637 37.4534 240.101 38.7599C239.564 40.0664 238.705 41.0463 237.525 42.0261C236.452 42.8971 234.949 43.6592 233.339 44.2036C231.622 44.748 229.69 44.9657 227.543 44.9657C226.04 44.9657 224.645 44.8568 223.357 44.6391C222.069 44.4213 220.888 44.0947 219.815 43.6592C218.742 43.2237 217.883 42.7882 217.132 42.3527C216.38 41.8084 215.736 41.3729 215.307 40.8285V33.534C215.844 34.405 216.488 35.1671 217.239 35.9292C217.99 36.6913 218.956 37.3446 219.922 37.78C220.996 38.3244 222.069 38.7599 223.464 39.0865C224.752 39.4132 226.148 39.522 227.65 39.522C228.616 39.522 229.582 39.4132 230.441 39.1954C231.3 38.9777 232.051 38.651 232.695 38.2155C233.339 37.78 233.876 37.2357 234.198 36.5824C234.52 35.9292 234.734 35.1671 234.734 34.2961C234.734 32.7719 234.198 31.6831 233.017 31.0299C231.836 30.3766 230.012 29.9411 227.436 29.9411H222.498V25.0418H227.436C228.509 25.0418 229.368 24.9329 230.119 24.7152C230.87 24.4974 231.407 24.1708 231.836 23.7353C232.266 23.2998 232.588 22.8643 232.802 22.32C233.017 21.7756 233.124 21.2312 233.124 20.578C233.124 19.8159 233.017 19.1626 232.695 18.6183C232.373 18.0739 231.944 17.6384 231.407 17.3118C230.87 16.9852 230.226 16.6585 229.475 16.5497C228.724 16.3319 227.865 16.223 227.006 16.223C225.718 16.223 224.538 16.3319 223.464 16.6585C222.391 16.9852 221.318 17.4206 220.459 17.965C219.493 18.5094 218.742 19.1626 217.99 19.8159C217.239 20.4691 216.702 21.2312 216.166 21.9933V13.5012H216.058Z" fill="white"/>
<path d="M246.648 44.3125V10.9971H260.923C268.329 10.9971 271.978 13.7189 271.978 19.2715C271.978 21.1223 271.549 22.7554 270.798 24.0619C270.046 25.3684 268.758 26.3483 267.041 27.0015C269.08 27.3281 270.583 28.1991 271.549 29.5056C272.515 30.8121 272.944 32.5541 272.944 34.7316C272.944 36.4735 272.622 37.8889 272.086 39.1954C271.442 40.393 270.69 41.4817 269.51 42.2438C268.436 43.006 267.041 43.5503 265.431 43.9858C263.821 44.3125 262.104 44.5302 260.064 44.5302H246.648V44.3125ZM260.064 25.0418C261.889 25.0418 263.392 24.6063 264.465 23.8442C265.538 23.0821 266.075 21.9933 266.075 20.4691C266.075 19.1626 265.646 18.0739 264.68 17.4206C263.714 16.7674 262.211 16.3319 260.172 16.3319H252.444V25.0418H260.064ZM260.494 38.8688C262.748 38.8688 264.358 38.5421 265.431 37.78C266.504 37.0179 267.041 35.8203 267.041 34.1872C267.041 32.5541 266.504 31.4653 265.324 30.8121C264.25 30.1589 262.64 29.8322 260.494 29.8322H252.444V38.8688H260.494Z" fill="white"/>
<path d="M285.931 39.0865C286.575 39.0865 287.112 38.9776 287.649 38.651C288.185 38.3244 288.615 37.8889 288.937 37.1268L274.554 10.9971H281.316L291.835 30.2677L300.421 10.9971H306.539L294.518 37.3445C293.874 38.7599 293.23 39.9575 292.586 40.9374C291.942 41.9172 291.298 42.5705 290.547 43.2237C289.903 43.7681 289.151 44.2036 288.4 44.4213C287.649 44.6391 286.897 44.7479 286.039 44.7479C285.287 44.7479 284.536 44.6391 283.892 44.5302C283.248 44.4213 282.711 44.2036 282.175 43.9858V37.78C282.604 38.2155 283.141 38.5421 283.785 38.7599C284.643 38.9776 285.287 39.0865 285.931 39.0865Z" fill="white"/>
<path d="M316.521 44.3125H310.725V10.9971H316.521V25.0418H321.458L332.084 10.9971H339.168L326.61 26.8927L341.207 44.3125H333.694L321.78 29.9411H316.521V44.3125Z" fill="white"/>
<path d="M75.295 83.4472H114.18V92.5496H85.0843V102.479H95.7799C103.303 102.479 109.013 103.951 112.82 106.801C116.627 109.743 118.531 114.248 118.531 120.408C118.531 123.443 117.987 126.201 116.899 128.499C115.812 130.798 114.271 132.729 112.277 134.292C110.282 135.855 107.835 137.05 105.025 137.786C102.215 138.613 99.043 138.981 95.5986 138.981H75.295V83.4472ZM85.0843 111.582V129.879H95.508C97.4114 129.879 99.2243 129.695 100.765 129.419C102.397 129.143 103.756 128.591 104.844 127.856C105.932 127.12 106.838 126.109 107.382 124.914C108.016 123.626 108.288 122.155 108.288 120.225C108.288 116.915 107.201 114.616 105.025 113.421C102.85 112.225 99.6775 111.674 95.4173 111.674H85.0843V111.582Z" fill="white"/>
<path d="M136.931 124.914L166.842 83.4472H177.447V138.981H167.658V96.8709L137.656 138.981H127.142V83.4472H136.931V124.914Z" fill="white"/>
<path d="M188.505 87.5844C190.046 86.3891 192.403 85.2858 195.485 84.2744C198.567 83.1711 202.283 82.7114 206.634 82.7114C209.715 82.7114 212.525 82.9872 214.973 83.5389C217.511 84.0905 219.595 84.918 221.408 86.1133C223.221 87.2166 224.581 88.6877 225.578 90.4346C226.575 92.1815 227.028 94.2962 227.028 96.6867C227.028 103.123 223.765 107.444 217.329 109.743C225.668 111.03 229.838 115.351 229.838 122.799C229.838 125.189 229.384 127.396 228.387 129.511C227.481 131.625 226.031 133.372 224.127 134.935C222.224 136.406 219.958 137.693 217.148 138.521C214.338 139.44 211.166 139.9 207.449 139.9C204.911 139.9 202.645 139.716 200.47 139.256C198.295 138.889 196.391 138.337 194.578 137.693C192.856 137.05 191.315 136.314 190.046 135.487C188.777 134.659 187.78 133.832 187.055 133.004V120.776C187.871 122.247 188.959 123.534 190.228 124.729C191.497 125.925 193.038 127.028 194.76 127.947C196.482 128.867 198.385 129.511 200.561 130.062C202.736 130.522 205.093 130.798 207.54 130.798C209.172 130.798 210.803 130.614 212.253 130.246C213.704 129.878 214.973 129.327 216.06 128.591C217.148 127.856 217.964 127.028 218.598 125.925C219.233 124.913 219.505 123.626 219.505 122.155C219.505 119.673 218.508 117.834 216.604 116.638C214.701 115.443 211.619 114.892 207.359 114.892H199.11V106.709H207.359C209.172 106.709 210.622 106.525 211.8 106.157C212.978 105.789 213.976 105.237 214.701 104.502C215.426 103.858 215.97 103.031 216.332 102.111C216.695 101.192 216.876 100.273 216.876 99.1692C216.876 97.882 216.604 96.7787 216.06 95.8593C215.516 94.9398 214.791 94.2043 213.885 93.5607C212.979 93.009 211.891 92.5493 210.622 92.2735C209.353 91.9976 207.993 91.8137 206.543 91.7218C204.458 91.6299 202.464 91.9057 200.651 92.4574C198.839 93.009 197.116 93.7446 195.575 94.664C194.035 95.5834 192.675 96.5948 191.406 97.7901C190.137 98.9853 189.14 100.181 188.415 101.376V87.5844H188.505Z" fill="white"/>
<path d="M278.784 114.984H248.782V138.981H239.083V83.4472H248.782V105.789H278.784V83.4472H288.573V138.981H278.784V114.984Z" fill="white"/>
<path d="M335.616 114.984H310.418V129.879H339.332V138.981H300.628V83.4472H338.516V92.5496H310.418V105.789H335.616V114.984Z" fill="white"/>
<path d="M393.716 132.912C392.991 133.74 392.085 134.567 390.816 135.395C389.638 136.222 388.097 136.958 386.465 137.601C384.834 138.245 382.93 138.797 380.845 139.256C378.761 139.716 376.585 139.9 374.229 139.9C369.787 139.9 365.708 139.256 361.992 137.877C358.367 136.59 355.194 134.659 352.656 132.177C350.028 129.694 348.033 126.752 346.674 123.166C345.224 119.581 344.498 115.627 344.498 111.122C344.498 106.984 345.224 103.123 346.583 99.6289C348.033 96.135 350.028 93.1009 352.566 90.6184C355.194 88.044 358.276 86.1132 361.992 84.734C365.708 83.3549 369.787 82.6194 374.319 82.6194C378.67 82.6194 382.386 83.171 385.468 84.2743C388.55 85.3776 390.907 86.481 392.538 87.6762V101.468C391.722 100.272 390.635 99.0772 389.456 97.8819C388.278 96.6867 386.828 95.6753 385.287 94.7559C383.746 93.8364 382.024 93.1009 380.211 92.5492C378.398 91.9976 376.404 91.7217 374.41 91.7217C371.419 91.7217 368.79 92.1815 366.343 93.1928C363.986 94.1123 361.902 95.4914 360.27 97.1464C358.638 98.8014 357.279 100.916 356.463 103.307C355.557 105.697 355.103 108.363 355.103 111.306C355.103 113.972 355.466 116.546 356.282 118.845C357.098 121.236 358.276 123.258 359.907 125.005C361.539 126.752 363.533 128.131 365.89 129.143C368.246 130.154 371.056 130.706 374.229 130.798C376.585 130.798 378.851 130.522 380.845 129.97C382.84 129.418 384.652 128.775 386.284 127.855C387.915 126.936 389.366 125.925 390.635 124.637C391.904 123.442 392.901 122.063 393.716 120.684V132.912Z" fill="white"/>
<path d="M54.7391 27.7628C54.7391 43.096 42.4853 55.5256 27.3696 55.5256C12.2538 55.5256 0 43.096 0 27.7628C0 12.4296 12.2538 0 27.3696 0C33.9908 0 40.0629 2.38534 44.7965 6.35434L39.6543 10.2686C36.1901 7.76098 31.9497 6.28576 27.3696 6.28576C15.6761 6.28576 6.19685 15.9015 6.19685 27.7628C6.19685 39.6241 15.6761 49.2393 27.3696 49.2393C39.0629 49.2393 48.5422 39.6241 48.5422 27.7628C48.5422 27.5156 48.5381 27.2695 48.5299 27.0244L54.276 22.6503C54.5801 24.3073 54.7391 26.0165 54.7391 27.7628Z" fill="white"/>
</svg>
