<svg width="382" height="69" viewBox="0 0 382 69" fill="none" xmlns="http://www.w3.org/2000/svg">
<rect x="0.578125" y="17.2393" width="6.46479" height="32.3239" rx="3.23239" fill="white"/>
<rect x="78.1562" y="10.7744" width="6.46479" height="47.4085" rx="3.23239" fill="white"/>
<rect x="155.73" y="4.31055" width="6.46479" height="60.338" rx="3.23239" fill="white"/>
<rect x="233.309" y="12.9297" width="6.46479" height="40.9437" rx="3.23239" fill="white"/>
<rect x="310.887" y="19.3945" width="6.46479" height="30.169" rx="3.23239" fill="white"/>
<rect x="13.5039" y="23.7041" width="6.46479" height="21.5493" rx="3.23239" fill="white"/>
<rect x="91.082" y="6.46484" width="6.46479" height="56.0282" rx="3.23239" fill="white"/>
<rect x="168.66" y="8.62012" width="6.46479" height="51.7183" rx="3.23239" fill="white"/>
<rect x="246.238" y="17.2393" width="6.46479" height="34.4789" rx="3.23239" fill="white"/>
<rect x="323.816" y="6.46484" width="6.46479" height="56.0282" rx="3.23239" fill="white"/>
<rect x="26.4375" y="25.8594" width="6.46479" height="17.2394" rx="3.23239" fill="white"/>
<rect x="104.016" y="10.7744" width="6.46479" height="45.2535" rx="3.23239" fill="white"/>
<rect x="181.594" y="21.5498" width="6.46479" height="25.8592" rx="3.23239" fill="white"/>
<rect x="259.168" y="8.62012" width="6.46479" height="49.5634" rx="3.23239" fill="white"/>
<rect x="336.746" y="15.084" width="6.46479" height="36.6338" rx="3.23239" fill="white"/>
<rect x="39.3672" y="19.3945" width="6.46479" height="28.0141" rx="3.23239" fill="white"/>
<rect x="116.945" width="6.46479" height="68.9577" rx="3.23239" fill="white"/>
<rect x="194.52" y="8.62012" width="6.46479" height="49.5634" rx="3.23239" fill="white"/>
<rect x="272.098" y="4.31055" width="6.46479" height="58.1831" rx="3.23239" fill="white"/>
<rect x="349.676" y="12.9297" width="6.46479" height="40.9437" rx="3.23239" fill="white"/>
<rect x="52.293" y="23.7041" width="6.46479" height="19.3944" rx="3.23239" fill="white"/>
<rect x="129.871" width="6.46479" height="68.9577" rx="3.23239" fill="white"/>
<rect x="207.449" y="6.46484" width="6.46479" height="53.8732" rx="3.23239" fill="white"/>
<rect x="285.027" y="12.9297" width="6.46479" height="40.9437" rx="3.23239" fill="white"/>
<rect x="362.605" y="19.3945" width="6.46479" height="30.169" rx="3.23239" fill="white"/>
<rect x="65.2266" y="15.084" width="6.46479" height="36.6338" rx="3.23239" fill="white"/>
<rect x="142.805" y="12.9297" width="6.46479" height="40.9437" rx="3.23239" fill="white"/>
<rect x="220.383" y="4.31055" width="6.46479" height="60.338" rx="3.23239" fill="white"/>
<rect x="297.957" y="8.62012" width="6.46479" height="49.5634" rx="3.23239" fill="white"/>
<rect x="375.535" y="21.5498" width="6.46479" height="23.7042" rx="3.23239" fill="white"/>
</svg>
